# xmcd
#
# Track frame offsets:
# 150
# 16786
# 29205
# 47184
# 66178
# 83678
# 100979
# 119164
# 130808
# 149517
#
# Disc length: 2195 seconds
#
# Revision: 0
# Processed by: cddbd v1.4PL0 Copyright (c) Steve Scherf et al.
# Submitted via: Axialis_AX_CDPlayer 2.6
#
DISCID=9208910a
DTITLE=Conrad - Hurry Up and Wait
DYEAR=1900
DGENRE=
TTITLE0=Won't Be Back 
TTITLE1=Crazy Arms
TTITLE2=Why'd You Leave Me Lying
TTITLE3=These Hands
TTITLE4=Unchained Melody
TTITLE5=Secret
TTITLE6=Hands from Above
TTITLE7=Pocket Full Of Chain
TTITLE8=Leaving Believing Behind
TTITLE9=Walkin' Shoes
EXTD=
EXTT0=
EXTT1=
EXTT2=
EXTT3=
EXTT4=
EXTT5=
EXTT6=
EXTT7=
EXTT8=
EXTT9=
PLAYORDER=
